<svg xmlns="http://www.w3.org/2000/svg" width="878" height="118" viewBox="0 0 878 118">
  <path fill="#1F2427" fill-rule="evenodd" d="M40.24055,117.4971 C27.4279859,117.4971 17.5322516,113.682034 10.55305,106.051787 C3.57384844,98.421541 0.0843,87.7836266 0.0843,74.137725 C0.0843,60.1793219 3.59988984,49.3070348 10.631175,41.5205375 C17.6624602,33.7340402 27.6363187,29.84085 40.55305,29.84085 C50.5010164,29.84085 58.7301008,32.340825 65.24055,37.34085 C71.7509992,42.340875 75.8395,49.2418477 77.506175,58.043975 L55.3968,59.137725 C54.7717969,54.8147867 53.2093125,51.3643004 50.7093,48.7861625 C48.2092875,46.2080246 44.6676562,44.918975 40.0843,44.918975 C28.7821602,44.918975 23.131175,54.3720055 23.131175,73.27835 C23.131175,92.7576141 28.8863258,102.4971 40.3968,102.4971 C44.5634875,102.4971 48.0530359,101.182009 50.86555,98.5517875 C53.6780641,95.921566 55.4228383,92.0023344 56.099925,86.793975 L78.131175,87.8096 C77.3499211,93.5908789 75.2796293,98.7470773 71.9202375,103.27835 C68.5608457,107.809623 64.1468273,111.312192 58.67805,113.786162 C53.2092727,116.260133 47.0635008,117.4971 40.24055,117.4971 Z M93.99055,115.9346 L93.99055,-0.0029 L115.943675,-0.0029 L115.943675,115.9346 L93.99055,115.9346 Z M173.05305,117.4971 C160.344653,117.4971 150.579126,113.734117 143.756175,106.208037 C136.933224,98.6819582 133.5218,87.7055055 133.5218,73.27835 C133.5218,59.3199469 136.985307,48.5908875 143.912425,41.09085 C150.839543,33.5908125 160.657153,29.84085 173.36555,29.84085 C185.501027,29.84085 194.771768,33.8642473 201.17805,41.9111625 C207.584332,49.9580777 210.787425,61.7418141 210.787425,77.262725 L210.787425,77.887725 L156.568675,77.887725 C156.568675,86.1169328 158.092097,92.3278082 161.138987,96.5205375 C164.185878,100.713267 168.521772,102.8096 174.1468,102.8096 C181.907255,102.8096 186.80304,99.4502586 188.8343,92.731475 L209.537425,94.52835 C203.547812,109.840927 191.386475,117.4971 173.05305,117.4971 Z M173.05305,43.668975 C167.896774,43.668975 163.92546,45.465832 161.138987,49.0596 C158.352515,52.653368 156.881176,57.6793594 156.724925,64.137725 L189.537425,64.137725 C189.120756,57.3147742 187.480148,52.1976379 184.61555,48.7861625 C181.750952,45.3746871 177.896824,43.668975 173.05305,43.668975 Z M246.9593,117.4971 C238.782176,117.4971 232.402031,115.27056 227.818675,110.817412 C223.235319,106.364265 220.943675,100.101307 220.943675,92.02835 C220.943675,83.2783062 223.795209,76.6117062 229.498362,72.02835 C235.201516,67.4449937 243.469662,65.1012672 254.30305,64.9971 L272.506175,64.6846 L272.506175,60.387725 C272.506175,54.8668641 271.542643,50.7653426 269.61555,48.0830375 C267.688457,45.4007324 264.537447,44.0596 260.162425,44.0596 C256.099905,44.0596 253.118164,44.9840699 251.217112,46.8330375 C249.316061,48.6820051 248.131177,51.7418703 247.662425,56.012725 L224.7718,54.918975 C226.178057,46.6897672 229.94104,40.4528504 236.060862,36.2080375 C242.180685,31.9632246 250.526955,29.84085 261.099925,29.84085 C271.777062,29.84085 280.006146,32.471032 285.787425,37.731475 C291.568704,42.991918 294.4593,50.4658016 294.4593,60.15335 L294.4593,90.9346 C294.4593,95.674207 294.993149,98.9424035 296.060862,100.739287 C297.128576,102.536171 298.912412,103.4346 301.412425,103.4346 C303.0791,103.4346 304.693667,103.278352 306.256175,102.96585 L306.256175,114.84085 C304.954085,115.153352 303.782222,115.439807 302.74055,115.700225 C301.698878,115.960643 300.657222,116.168974 299.61555,116.325225 C298.573878,116.481476 297.467118,116.611683 296.295237,116.71585 C295.123357,116.820017 293.756183,116.8721 292.193675,116.8721 C286.672814,116.8721 282.597334,115.517947 279.967112,112.8096 C277.336891,110.101253 275.761386,106.116918 275.24055,100.856475 L274.7718,100.856475 C268.625936,111.95028 259.355195,117.4971 246.9593,117.4971 Z M272.506175,76.793975 L261.256175,76.950225 C256.151983,77.1585594 252.532227,77.7184496 250.3968,78.6299125 C248.261373,79.5413754 246.633785,80.9345906 245.513987,82.8096 C244.39419,84.6846094 243.8343,87.1845844 243.8343,90.3096 C243.8343,94.3200367 244.75877,97.3017777 246.607737,99.2549125 C248.456705,101.208047 250.917618,102.1846 253.99055,102.1846 C257.428067,102.1846 260.566057,101.247109 263.404612,99.3721 C266.243168,97.4970906 268.469709,94.9059707 270.0843,91.5986625 C271.698891,88.2913543 272.506175,84.7887852 272.506175,81.09085 L272.506175,76.793975 Z M316.412425,115.9346 L316.412425,51.2471 C316.412425,46.6116602 316.347321,42.7445113 316.217112,39.6455375 C316.086904,36.5465637 315.943676,33.7991953 315.787425,31.40335 L336.724925,31.40335 C336.881176,32.3408547 337.089507,35.1923887 337.349925,39.9580375 C337.610343,44.7236863 337.74055,47.8877172 337.74055,49.450225 L338.05305,49.450225 C340.188477,43.5126953 342.0895,39.3330496 343.756175,36.9111625 C345.42285,34.4892754 347.401997,32.6924184 349.693675,31.5205375 C351.985353,30.3486566 354.849908,29.762725 358.287425,29.762725 C361.099939,29.762725 363.365541,30.1533461 365.0843,30.9346 L365.0843,49.293975 C361.542616,48.5127211 358.417647,48.1221 355.7093,48.1221 C350.240523,48.1221 345.982753,50.3356195 342.935862,54.762725 C339.888972,59.1898305 338.36555,65.7522648 338.36555,74.450225 L338.36555,115.9346 L316.412425,115.9346 Z M428.443675,115.9346 L428.443675,68.512725 C428.443675,53.6689008 424.172884,46.2471 415.631175,46.2471 C411.20407,46.2471 407.597335,48.5127023 404.810862,53.043975 C402.02439,57.5752477 400.631175,63.4345641 400.631175,70.6221 L400.631175,115.9346 L378.67805,115.9346 L378.67805,50.3096 C378.67805,45.7783273 378.612946,42.067427 378.482737,39.1767875 C378.352529,36.286148 378.209301,33.6950281 378.05305,31.40335 L398.99055,31.40335 C399.146801,32.3929383 399.355132,35.036141 399.61555,39.3330375 C399.875968,43.629934 400.006175,46.5856336 400.006175,48.200225 L400.318675,48.200225 C403.027022,41.7418594 406.399384,37.0544062 410.435862,34.137725 C414.472341,31.2210437 419.303022,29.762725 424.92805,29.762725 C437.844781,29.762725 445.683245,35.9084969 448.443675,48.200225 L448.912425,48.200225 C451.777023,41.6376922 455.214488,36.9241977 459.224925,34.0596 C463.235362,31.1950023 468.339477,29.762725 474.537425,29.762725 C482.766633,29.762725 489.042612,32.5621762 493.36555,38.1611625 C497.688488,43.7601488 499.849925,51.7939227 499.849925,62.262725 L499.849925,115.9346 L478.05305,115.9346 L478.05305,68.512725 C478.05305,53.6689008 473.782259,46.2471 465.24055,46.2471 C460.969695,46.2471 457.467126,48.3173918 454.732737,52.4580375 C451.998349,56.5986832 450.500968,62.3147719 450.24055,69.606475 L450.24055,115.9346 L428.443675,115.9346 Z M576.9593,97.418975 C573.730117,104.45026 569.875989,109.554376 565.3968,112.731475 C560.917611,115.908574 555.422874,117.4971 548.912425,117.4971 C537.870703,117.4971 529.628598,113.916407 524.185862,106.754912 C518.743127,99.5934184 516.0218,88.6950898 516.0218,74.0596 C516.0218,59.2678594 518.9775,48.2002617 524.888987,40.856475 C530.800475,33.5126883 539.485284,29.84085 550.943675,29.84085 C557.766626,29.84085 563.638963,31.5726035 568.560862,35.0361625 C573.482762,38.4997215 577.193663,43.4085266 579.693675,49.762725 L579.92805,49.762725 C581.23014,43.3043594 583.183245,37.1846289 585.787425,31.40335 L606.49055,31.40335 C603.88637,36.142957 601.191085,42.67935 598.404612,51.012725 C595.61814,59.3461 593.912428,66.5074867 593.287425,72.4971 C594.9541,88.5909305 598.495731,103.069952 603.912425,115.9346 L582.818675,115.9346 C580.266579,109.684569 578.417639,103.512755 577.2718,97.418975 L576.9593,97.418975 Z M539.068675,73.825225 C539.068675,84.0336094 540.175435,91.3512445 542.388987,95.77835 C544.60254,100.205455 548.209275,102.418975 553.2093,102.418975 C557.84474,102.418975 561.829075,99.788793 565.162425,94.52835 C568.495775,89.267907 570.63117,82.2888102 571.568675,73.59085 C570.422836,64.3199703 568.326503,57.2367078 565.279612,52.34085 C562.232722,47.4449922 558.417656,44.9971 553.8343,44.9971 C548.521773,44.9971 544.732749,47.3147852 542.467112,51.950225 C540.201476,56.5856648 539.068675,63.8772586 539.068675,73.825225 Z M640.943675,117.34085 C634.485309,117.34085 629.511401,115.583055 626.0218,112.067412 C622.532199,108.55177 620.787425,103.226302 620.787425,96.09085 L620.787425,46.2471 L610.0843,46.2471 L610.0843,31.40335 L621.881175,31.40335 L628.756175,11.5596 L642.506175,11.5596 L642.506175,31.40335 L658.5218,31.40335 L658.5218,46.2471 L642.506175,46.2471 L642.506175,90.15335 C642.506175,94.2679539 643.287417,97.3017777 644.849925,99.2549125 C646.412433,101.208047 648.834284,102.1846 652.11555,102.1846 C653.834309,102.1846 656.282201,101.82002 659.4593,101.09085 L659.4593,114.6846 C654.042606,116.455442 647.870793,117.34085 640.943675,117.34085 Z M672.5843,16.168975 L672.5843,-0.0029 L694.537425,-0.0029 L694.537425,16.168975 L672.5843,16.168975 Z M672.5843,115.9346 L672.5843,31.40335 L694.537425,31.40335 L694.537425,115.9346 L672.5843,115.9346 Z M752.2718,117.4971 C739.459236,117.4971 729.563502,113.682034 722.5843,106.051787 C715.605098,98.421541 712.11555,87.7836266 712.11555,74.137725 C712.11555,60.1793219 715.63114,49.3070348 722.662425,41.5205375 C729.69371,33.7340402 739.667569,29.84085 752.5843,29.84085 C762.532266,29.84085 770.761351,32.340825 777.2718,37.34085 C783.782249,42.340875 787.87075,49.2418477 789.537425,58.043975 L767.42805,59.137725 C766.803047,54.8147867 765.240563,51.3643004 762.74055,48.7861625 C760.240538,46.2080246 756.698906,44.918975 752.11555,44.918975 C740.81341,44.918975 735.162425,54.3720055 735.162425,73.27835 C735.162425,92.7576141 740.917576,102.4971 752.42805,102.4971 C756.594737,102.4971 760.084286,101.182009 762.8968,98.5517875 C765.709314,95.921566 767.454088,92.0023344 768.131175,86.793975 L790.162425,87.8096 C789.381171,93.5908789 787.310879,98.7470773 783.951487,103.27835 C780.592096,107.809623 776.178077,111.312192 770.7093,113.786162 C765.240523,116.260133 759.094751,117.4971 752.2718,117.4971 Z M877.2718,91.2471 C877.2718,99.4242242 873.925479,105.843431 867.232737,110.504912 C860.539996,115.166394 851.282276,117.4971 839.4593,117.4971 C827.844659,117.4971 818.951518,115.661181 812.779612,111.989287 C806.607707,108.317394 802.506185,102.601305 800.474925,94.84085 L819.7718,91.950225 C820.865555,95.9606617 822.753557,98.799175 825.435862,100.46585 C828.118168,102.132525 832.7926,102.96585 839.4593,102.96585 C845.605164,102.96585 850.084286,102.184608 852.8968,100.6221 C855.709314,99.0595922 857.11555,96.6117 857.11555,93.27835 C857.11555,90.5700031 855.982749,88.4215871 853.717112,86.8330375 C851.451476,85.2444879 847.610369,83.9033555 842.193675,82.8096 C829.79778,80.3616711 821.438488,78.083048 817.11555,75.9736625 C812.792612,73.864277 809.498374,71.1299293 807.232737,67.7705375 C804.967101,64.4111457 803.8343,60.2835828 803.8343,55.387725 C803.8343,47.314768 806.946248,41.0257684 813.170237,36.5205375 C819.394227,32.0153066 828.209243,29.762725 839.61555,29.762725 C849.667684,29.762725 857.75354,31.7158305 863.873362,35.6221 C869.993185,39.5283695 873.808251,45.1793547 875.318675,52.575225 L855.86555,54.606475 C855.240547,51.1689578 853.704104,48.6038793 851.256175,46.9111625 C848.808246,45.2184457 844.928077,44.3721 839.61555,44.3721 C834.407191,44.3721 830.50098,45.0361559 827.8968,46.3642875 C825.29262,47.6924191 823.99055,49.9189594 823.99055,53.043975 C823.99055,55.4919039 824.993144,57.4319887 826.998362,58.8642875 C829.003581,60.2965863 832.375943,61.4814703 837.11555,62.418975 C843.730166,63.7731484 849.602504,65.1663637 854.732737,66.5986625 C859.862971,68.0309613 863.977514,69.7366734 867.076487,71.71585 C870.175461,73.6950266 872.649395,76.2340637 874.498362,79.3330375 C876.34733,82.4320113 877.2718,86.4033258 877.2718,91.2471 Z"/>
</svg>
